<?xml version="1.0" encoding="UTF-8" standalone="no"?> <svg height="512" viewBox="0 0 60 60" width="512" xmlns="http://www.w3.org/2000/svg"><g id="055---Search-Male-User"><path id="Shape" d="m43.1 7.4c-9.4885127-9.48905849-24.7422668-9.89743875-34.72491385-.92967077-9.98264705 8.96776797-11.20574297 24.17789037-2.78435723 34.62558717 8.42138578 10.4476967 23.54439308 12.4820116 34.42727108 4.6310836l2.229 2.228c-.050459.8530743.2652862 1.6871799.868 2.293l8.579 8.579c.7539219.7529719 1.7764669 1.1750145 2.842 1.173 2 0 2.859-1.191 4.286-2.618 1.5683904-1.5712625 1.5683904-4.1157375 0-5.687l-8.579-8.58c-.6060573-.6029817-1.4405851-.918749-2.294-.868l-2.227-2.227c7.252075-10.0427062 6.1410699-23.8645933-2.622-32.62zm-34.291 34.285c-7.8421516-7.8422578-9.05250449-20.1320746-2.89085485-29.3534857 6.16164965-9.22141113 17.97919535-12.80612344 28.22549485-8.56186905 10.2462996 4.24425438 16.0676138 15.13539065 13.9038578 26.01282185-2.1637559 10.8774312-11.7099455 18.7116391-22.8004978 18.7115329-6.1648974-.0029116-12.0767717-2.4517467-16.438-6.809zm47.171 9.994-4.3 4.3-5.015-5.015 4.3-4.3zm1.428 4.287-1.442 1.442c-.3825115.3797526-.9004053.5916994-1.4394046.5890729s-1.054803-.2196105-1.4335954-.6030729l4.3-4.3c.7965835.7892075.8032965 2.0745149.015 2.872zm-7.857-10.716-4.3 4.3-.722-.722c-.3981177-.3986208-.3981177-1.0443792 0-1.443l2.857-2.859c.399417-.397135 1.044583-.397135 1.444 0zm-3.57-2.145c-1.144 1.144-2.689 2.687-2.876 2.877l-1.505-1.507c1.0385242-.8746392 2.0003608-1.8364758 2.875-2.875z"/><path id="Shape" d="m40.242 10.252c-5.439423-5.45566034-13.4109201-7.53002205-20.8196887-5.41774829-7.4087686 2.11227377-13.08786267 8.07848139-14.83246735 15.58234089-1.74460469 7.5038594.72007055 15.3634471 6.43715605 20.5274074.0543501.0732289.1222437.1353516.2.183 3.7429605 3.3299925 8.552112 5.2137925 13.561 5.312 8.6542151.182659 16.5508223-4.9127489 19.9504725-12.8733507 3.3996501-7.9606018 1.6198989-17.1883899-4.4964725-23.3136493zm-34.191 15c-.01145047-8.777001 5.9303946-16.44436262 14.4325233-18.62373969 8.5021288-2.17937706 17.3997212 1.68414548 21.6119251 9.38435429 4.2122039 7.7002089 2.6665039 17.2764695-3.7544484 23.2603854-.724-.454-.4-.292-7.319-2.914-.6179016-.2288862-1.026423-.8200829-1.022-1.479 0-1.326-.1-1.939.5-2.443 1.639667-1.3448826 2.626813-3.3260878 2.713-5.445 1.5466789-.0859124 2.7636627-1.3531126 2.787-2.902v-1.92c.0001241-.7699105-.3111434-1.5071421-.863-2.044.643-3.1-.256-6.214-3.109-7.414-1.253-3.655-6.025-5.3-9.8-4.886-5.916.634-8.654 6.42-7.183 12.137-.6599886.5430479-1.0431723 1.3523172-1.045 2.207v1.92c.0243059 1.5473848 1.239864 2.8131365 2.785 2.9.0861223 2.1199404 1.0740761 4.1020341 2.715 5.447.618.518.5 1.2.5 2.443.0022753.6582214-.4072993 1.2476093-1.025 1.475-6.924 2.623-6.529 2.463-7.022 2.732-3.78896013-3.6039549-5.92411738-8.6108299-5.902-13.84zm7.589 15.272 6.042-2.3c1.388896-.529274 2.3097351-1.8576976 2.318-3.344v-1.29c.012826-1.0326708-.4328958-2.0178734-1.217-2.69-1.3738579-1.141278-2.124567-2.8668328-2.023-4.65.059072-.3240722-.0284455-.6576641-.239-.911-.354-.4-.7-.339-1.521-.339-.5268385.0232086-.9735661-.3833135-1-.91v-1.92c.0087976-.3728531.2442132-.7025935.594-.832.4903448-.1975055.7422671-.742534.575-1.244-1.669-4.989.785-10.314 5.961-10.314 3.485 0 6.307 1.456 7.051 3.7.0279529.0745144.0487142.1515318.062.23.0943193.3907408.4061482.6916556.8.772.0448111.0109037.088897.0245971.132.041 2.047.773 2.456 3.2 1.974 5.324-.1914348.2358611-.2652805.5459517-.2007018.8427805.0645788.2968288.2605797.5482109.5327018.6832195.3132113.1434737.5148572.4554983.517.8v1.92c-.0280248.5246814-.4730363.9291157-.998.907-.773 0-1.136-.075-1.512.342-.2069251.2541966-.2969787.583909-.248.908.101567 1.7831672-.6491421 3.508722-2.023 4.65-1.401 1.18-1.217 2.71-1.217 3.98.0072164 1.4856636.9263383 2.8142992 2.314 3.345 7.277 2.753 6.067 2.3 6.367 2.428-6.8483538 5.1041932-16.2502276 5.0515548-23.041-.129z"/></g></svg>