<svg width="214" height="132" viewBox="0 0 214 132" fill="none" xmlns="http://www.w3.org/2000/svg">
<rect width="214" height="132" fill="white"/>
<path d="M46.1203 92.968C45.0536 92.968 44.2003 92.712 43.5603 92.2C42.9203 91.7307 42.6003 91.048 42.6003 90.152C42.6003 89.8533 42.6429 89.5333 42.7283 89.192C42.8136 88.8507 42.9416 88.552 43.1123 88.296C45.7149 88.296 47.7629 87.912 49.2563 87.144C50.7923 86.376 51.9016 85.096 52.5843 83.304C53.2669 81.512 53.6083 79.1227 53.6083 76.136V43.304L49.2563 42.344C49.2563 41.7467 49.3416 41.2773 49.5123 40.936C49.6829 40.552 50.0029 40.232 50.4723 39.976H63.4003C63.4003 41.3413 63.0589 42.1093 62.3763 42.28L58.9203 43.176V68.136C58.9203 71.6347 58.6003 74.8987 57.9603 77.928C57.3629 80.9147 56.4883 83.5387 55.3363 85.8C54.1843 88.0613 52.8189 89.8107 51.2403 91.048C49.7043 92.328 47.9976 92.968 46.1203 92.968ZM78.3638 81.768C78.0651 81.768 77.6384 81.7253 77.0838 81.64C76.5718 81.5547 76.1664 81.4693 75.8678 81.384L63.1318 43.24L59.0358 42.344C59.0358 41.7467 59.1211 41.2773 59.2918 40.936C59.4624 40.552 59.7824 40.2107 60.2518 39.912H73.0518C73.0518 41.32 72.7104 42.088 72.0278 42.216L68.5718 43.112L79.5798 76.136L88.9238 45.096H91.4198L101.596 76.2L111.644 43.304L106.908 42.344C106.908 41.7467 106.972 41.2773 107.1 40.936C107.27 40.5947 107.59 40.2747 108.06 39.976H118.876C118.876 41.3413 118.534 42.1093 117.852 42.28L114.78 43.112L103.516 80.04C103.302 80.68 102.876 81.128 102.236 81.384C101.638 81.64 101.041 81.768 100.444 81.768C100.145 81.768 99.7184 81.7253 99.1638 81.64C98.6518 81.5547 98.2464 81.4693 97.9478 81.384L89.1158 54.376L81.4358 80.04C81.2224 80.68 80.7958 81.128 80.1558 81.384C79.5158 81.64 78.9184 81.768 78.3638 81.768ZM131.574 81.768C131.275 81.768 130.848 81.7253 130.294 81.64C129.782 81.5547 129.376 81.4693 129.078 81.384L116.342 43.24L112.246 42.344C112.246 41.7467 112.331 41.2773 112.502 40.936C112.672 40.552 112.992 40.2107 113.462 39.912H126.262C126.262 41.32 125.92 42.088 125.238 42.216L121.782 43.112L132.79 76.136L142.134 45.096H144.63L154.806 76.2L164.854 43.304L160.118 42.344C160.118 41.7467 160.182 41.2773 160.31 40.936C160.48 40.5947 160.8 40.2747 161.27 39.976H172.086C172.086 41.3413 171.744 42.1093 171.062 42.28L167.99 43.112L156.726 80.04C156.512 80.68 156.086 81.128 155.446 81.384C154.848 81.64 154.251 81.768 153.654 81.768C153.355 81.768 152.928 81.7253 152.374 81.64C151.862 81.5547 151.456 81.4693 151.158 81.384L142.326 54.376L134.646 80.04C134.432 80.68 134.006 81.128 133.366 81.384C132.726 81.64 132.128 81.768 131.574 81.768Z" fill="black"/>
<line x1="6" y1="5" x2="6" y2="127" stroke="black" stroke-width="10"/>
<line x1="209" y1="56" x2="209" y2="130" stroke="black" stroke-width="10"/>
<line x1="1" y1="5" x2="162" y2="5" stroke="black" stroke-width="10"/>
<line x1="0.975008" y1="126.045" x2="209.975" y2="125" stroke="black" stroke-width="10"/>
</svg>
